# xmcd
#
# Track frame offsets: 
#        182
#        36995
#        51720
#        70807
#        84335
#        121045
#        144737
#        162665
#        174125
#        187175
#        203462
#        223582
#        237447
#        268442
#        282227
#        296330
#        319787
#        334385
#
# Disc length: 4671 seconds
#
# Revision: 2
# Processed by: cddbd v1.5.2PL0 Copyright (c) Steve Scherf et al.
# Submitted via: ExactAudioCopy v1.3
#
DISCID=20123d12
DTITLE=Taj Mahal - Sing A Happy Song: The Warner Brothers Recordings. 
DTITLE=CD2
DYEAR=2001
DGENRE=Blues
TTITLE0=Love Theme In The Key Of D
TTITLE1=Funky Butt
TTITLE2=Brother's Doin' Time
TTITLE3=Night Rider
TTITLE4=Free The Brothers
TTITLE5=Sentidos Dulce (Sweet Feelings)
TTITLE6=The Funeral March
TTITLE7=Malcolm's Song
TTITLE8=David And Angela
TTITLE9=Sing A Happy Song
TTITLE10=Queen Bee
TTITLE11=Lowdown Showdown
TTITLE12=The Most Recent (Evolution) Of Muthafusticus Modernusticus
TTITLE13=Why You Do Me This Way
TTITLE14=Salsa De Laventille
TTITLE15=The Big Blues
TTITLE16=Highnite
TTITLE17=Southbound With The Hammer Down
EXTD=Tracks 1-9 ="Brothers"  OST\n10-18 ="Evolution (The Most Recent
EXTD=)"\n\nThis collection =Rhino Handmade, RHM2 7749
EXTT0=
EXTT1=
EXTT2=
EXTT3=
EXTT4=
EXTT5=
EXTT6=
EXTT7=
EXTT8=
EXTT9=
EXTT10=
EXTT11=
EXTT12=
EXTT13=
EXTT14=
EXTT15=
EXTT16=
EXTT17=
PLAYORDER=
